<svg width="255.8" height="107.5" viewBox="0 0 255.8 107.5" fill="none" xmlns="http://www.w3.org/2000/svg">
  <g transform="translate(14 14)" fill="#f59e0b">
    <path d="M23.5 78.6L0 78.6L0 5.6L22.4 5.6Q33 5.6 39.2 10.65Q45.4 15.7 45.4 24.4L45.4 24.4Q45.4 29.3 43.2 32.9Q41 36.5 37.25 38.5Q33.5 40.5 28.6 40.5L28.6 40.5L28.6 40.1Q33.9 40 38.05 42.05Q42.2 44.1 44.65 48.1Q47.1 52.1 47.1 57.8L47.1 57.8Q47.1 64.1 44.2 68.8Q41.3 73.5 36.05 76.05Q30.8 78.6 23.5 78.6L23.5 78.6M12.2 45.8L12.2 68.2L22.7 68.2Q28.2 68.2 31.35 65.25Q34.5 62.3 34.5 57.2L34.5 57.2Q34.5 52.1 31.35 48.95Q28.2 45.8 22.7 45.8L22.7 45.8L12.2 45.8M12.2 16L12.2 35.7L22.2 35.7Q27.2 35.7 30.05 33.05Q32.9 30.4 32.9 25.8L32.9 25.8Q32.9 21.2 30.05 18.6Q27.2 16 22.2 16L22.2 16L12.2 16M108.1 78.6L59.9 78.6L59.9 67.2L79.1 67.2L79.1 34.9L62.4 34.9L62.4 23.6L91.1 23.6L91.1 67.2L108.1 67.2L108.1 78.6M84.1 14.4L84.1 14.4Q80.3 14.4 78.1 12.45Q75.9 10.5 75.9 7.2L75.9 7.2Q75.9 3.9 78.1 1.95Q80.3 0 84.1 0L84.1 0Q87.9 0 90.1 1.95Q92.3 3.9 92.3 7.2L92.3 7.2Q92.3 10.5 90.1 12.45Q87.9 14.4 84.1 14.4M142.3 79.5L142.3 79.5Q135.3 79.5 130.15 76.85Q125 74.2 122.15 69.35Q119.3 64.5 119.3 57.9L119.3 57.9L119.3 44.3Q119.3 37.7 122.15 32.85Q125 28 130.15 25.35Q135.3 22.7 142.3 22.7L142.3 22.7Q149.4 22.7 154.5 25.35Q159.6 28 162.45 32.85Q165.3 37.7 165.3 44.2L165.3 44.2L165.3 57.9Q165.3 64.5 162.45 69.35Q159.6 74.2 154.5 76.85Q149.4 79.5 142.3 79.5M142.3 68.6L142.3 68.6Q147.3 68.6 150.05 65.85Q152.8 63.1 152.8 57.9L152.8 57.9L152.8 44.3Q152.8 39 150.05 36.3Q147.3 33.6 142.3 33.6L142.3 33.6Q137.4 33.6 134.6 36.3Q131.8 39 131.8 44.3L131.8 44.3L131.8 57.9Q131.8 63.1 134.6 65.85Q137.4 68.6 142.3 68.6M214.7 35.2L179.2 71L173.3 64.8L208.6 29.2Q210 27.8 211.5 26.55Q213 25.3 213.9 24.6L213.9 24.6L213.8 23.9Q212.7 24 210.5 24.2Q208.3 24.4 205.8 24.4L205.8 24.4L186.3 24.4L186.3 16.6L227.8 16.6L227.8 58.1L219.8 58.1L219.8 38.2Q219.8 35.7 220 33.3Q220.2 30.9 220.4 29.6L220.4 29.6L219.7 29.4Q219 30.4 217.55 32.1Q216.1 33.8 214.7 35.2L214.7 35.2"/>
  </g>
</svg>
